<?xml version="1.0" standalone="no"?>
<!DOCTYPE svg PUBLIC "-//W3C//DTD SVG 20010904//EN"
 "http://www.w3.org/TR/2001/REC-SVG-20010904/DTD/svg10.dtd">
<svg version="1.0" xmlns="http://www.w3.org/2000/svg"
 width="1130.000000pt" height="1130.000000pt" viewBox="0 0 1130.000000 1130.000000"
 preserveAspectRatio="xMidYMid meet">
<metadata>
Created by potrace 1.11, written by Peter Selinger 2001-2013
</metadata>
<g transform="translate(0.000000,1130.000000) scale(0.100000,-0.100000)"
fill="#000000" stroke="none">
<path d="M6485 8644 c-1230 -106 -1891 -487 -1964 -1130 -18 -167 5 -372 65
-571 34 -111 81 -240 110 -294 26 -50 -1 -32 -93 65 -217 227 -314 459 -313
751 0 167 30 315 102 508 26 69 37 112 31 118 -15 15 -199 78 -287 99 -264 60
-605 58 -890 -7 -76 -17 -74 -33 5 -33 70 0 195 -35 284 -80 152 -77 153 -75
-72 -72 -272 5 -442 -17 -650 -83 -94 -29 -121 -51 -76 -60 130 -29 265 -96
323 -160 21 -23 23 -29 10 -37 -8 -5 -85 -50 -170 -101 -1060 -632 -1786
-1446 -2149 -2410 -36 -94 -40 -100 -122 -175 -322 -296 -508 -580 -591 -902
-25 -99 -50 -300 -36 -300 2 0 22 35 44 78 60 117 162 216 284 275 110 53 170
72 170 53 0 -6 -7 -65 -15 -131 -22 -185 -35 -382 -38 -590 -4 -243 13 -648
31 -759 l8 -41 579 -3 c319 -1 585 0 592 2 8 4 8 16 0 48 -6 24 -11 125 -10
228 0 166 3 195 25 281 43 160 105 258 173 275 37 9 93 -14 120 -50 35 -46 79
-149 101 -236 15 -60 19 -112 19 -260 0 -102 -2 -207 -5 -235 l-5 -50 449 -3
c248 -1 453 1 458 6 4 4 1 52 -6 107 -18 129 -14 394 7 498 50 245 203 482
358 555 303 142 646 4 818 -328 112 -214 154 -491 116 -753 -6 -43 -9 -80 -6
-82 8 -9 1430 -5 1435 3 3 5 -1 53 -9 108 -12 88 -23 195 -41 389 -7 82 -7
483 1 575 6 68 39 316 49 365 33 160 86 324 147 454 234 498 651 713 1181 611
167 -32 294 -78 364 -132 143 -110 241 -260 280 -426 30 -129 13 -347 -36
-473 -117 -296 -330 -530 -604 -664 -253 -124 -493 -143 -715 -55 -28 11 -56
20 -61 20 -6 0 -10 -148 -10 -395 l0 -395 78 0 c42 0 125 7 183 15 396 52 776
223 1099 493 127 106 355 343 457 474 89 113 251 350 299 435 16 29 32 53 36
53 4 0 38 -20 75 -44 37 -24 114 -67 170 -95 456 -229 954 -268 1423 -112 551
184 996 643 1179 1215 40 124 37 148 -9 82 -226 -323 -402 -506 -635 -662
-530 -354 -1142 -363 -1873 -29 -45 21 -81 39 -80 40 2 1 39 -4 83 -11 48 -7
151 -11 260 -9 157 2 193 5 278 28 202 54 380 160 525 312 146 154 250 351
306 580 36 150 31 166 -24 69 -122 -211 -304 -387 -505 -484 -242 -118 -494
-136 -830 -58 l-91 20 18 115 c25 167 33 303 32 523 -3 422 -88 781 -273 1155
-150 302 -295 501 -545 750 -258 257 -500 433 -879 640 l-69 37 53 38 c71 50
183 106 280 139 43 14 80 30 81 35 4 12 -29 21 -146 40 -189 32 -391 27 -560
-13 l-75 -18 16 31 c26 51 82 114 149 169 35 28 64 54 64 59 0 11 -130 8 -315
-8z m445 -1426 c129 -67 95 -266 -49 -285 -141 -19 -233 142 -143 249 51 60
119 73 192 36z"/>
</g>
</svg>
