<?xml version="1.0" standalone="no"?>
<!DOCTYPE svg PUBLIC "-//W3C//DTD SVG 20010904//EN"
 "http://www.w3.org/TR/2001/REC-SVG-20010904/DTD/svg10.dtd">
<svg version="1.0" xmlns="http://www.w3.org/2000/svg"
 width="1371.000000pt" height="1371.000000pt" viewBox="0 0 1371.000000 1371.000000"
 preserveAspectRatio="xMidYMid meet">
<metadata>
Created by potrace 1.11, written by Peter Selinger 2001-2013
</metadata>
<g transform="translate(0.000000,1371.000000) scale(0.100000,-0.100000)"
fill="#000000" stroke="none">
<path d="M10847 10242 c-15 -3 -17 -29 -17 -282 l0 -278 -32 -7 c-45 -10 -241
-90 -300 -122 l-49 -27 -200 200 -199 199 -292 -292 -292 -292 200 -199 200
-199 -47 -93 c-26 -51 -62 -136 -79 -189 l-32 -96 -278 1 c-195 1 -280 -2
-282 -10 -3 -10 -2 -734 1 -793 l1 -23 280 -2 281 -3 30 -90 c17 -49 50 -131
75 -180 24 -50 44 -95 44 -100 0 -5 -89 -96 -197 -203 l-198 -193 293 -292
293 -291 197 197 198 198 104 -50 c58 -28 144 -63 192 -78 l88 -27 2 -281 3
-280 408 -1 c224 -1 407 2 408 5 1 3 2 129 3 280 l1 275 105 36 c58 20 143 56
189 79 l84 43 199 -199 198 -198 293 293 292 292 -180 179 c-99 98 -188 188
-198 199 -18 20 -17 23 32 124 28 56 62 140 77 186 l26 82 279 0 c153 0 279 3
280 8 4 28 3 806 -1 812 -3 4 -129 7 -281 6 l-277 -1 -27 85 c-15 47 -50 132
-77 189 l-50 104 199 199 198 198 -293 292 -292 293 -198 -198 -199 -199 -104
50 c-57 28 -142 63 -189 78 l-86 29 1 273 c0 151 -2 277 -5 280 -5 7 -770 10
-803 4z m593 -1470 c163 -53 312 -185 389 -345 41 -84 60 -182 56 -287 -5
-121 -10 -150 -46 -233 -46 -110 -104 -185 -209 -269 -208 -166 -547 -172
-760 -13 -186 138 -280 326 -274 550 3 141 44 255 131 370 86 113 227 207 358
239 86 22 269 15 355 -12z"/>
<path d="M6869 9436 c-2 -2 -49 -6 -104 -10 -424 -29 -896 -122 -1177 -232
-227 -89 -418 -206 -547 -333 -247 -245 -330 -536 -265 -931 24 -141 104 -393
160 -501 26 -50 -1 -32 -93 65 -294 307 -380 654 -268 1086 9 36 35 114 57
173 26 69 37 112 31 118 -26 26 -291 106 -408 123 -89 13 -303 26 -355 21 -30
-2 -89 -7 -130 -10 -80 -6 -319 -44 -334 -52 -15 -10 18 -23 60 -23 66 0 193
-37 279 -80 152 -77 154 -75 -78 -72 -277 5 -496 -26 -682 -95 -51 -19 -66
-45 -30 -51 102 -17 259 -95 315 -157 21 -23 23 -29 10 -37 -8 -5 -85 -50
-170 -101 -1060 -632 -1786 -1446 -2149 -2410 -36 -94 -40 -100 -122 -175
-322 -296 -508 -580 -591 -902 -26 -101 -50 -300 -36 -300 3 0 23 35 44 77 59
118 161 217 284 276 95 45 170 71 170 59 0 -4 -9 -84 -19 -177 -22 -196 -31
-342 -35 -575 -3 -225 15 -629 33 -735 l7 -40 579 -3 c319 -1 585 0 592 2 8 4
8 16 0 48 -6 24 -11 125 -10 228 0 166 3 195 25 281 43 160 105 258 173 275
37 9 93 -14 120 -50 68 -90 115 -251 124 -426 5 -99 3 -152 -11 -325 l-3 -30
449 -3 c248 -1 454 2 458 6 5 5 3 44 -3 88 -13 91 -17 360 -7 449 22 188 124
410 244 531 194 195 512 198 749 7 214 -174 338 -502 321 -853 -4 -74 -10
-154 -15 -177 -4 -23 -6 -45 -3 -48 9 -8 1430 -6 1436 3 2 4 -2 52 -9 107 -13
88 -20 163 -41 395 -9 107 -6 478 6 611 55 624 274 1076 621 1282 259 153 599
172 957 54 171 -57 309 -188 393 -373 82 -181 81 -430 -4 -634 -117 -282 -325
-506 -591 -635 -248 -121 -463 -141 -687 -64 -48 16 -89 29 -93 29 -3 0 -6
-178 -6 -395 l0 -395 78 0 c42 0 125 7 183 15 396 52 776 223 1099 493 127
106 355 343 457 474 89 113 251 350 299 435 16 29 32 53 36 53 4 0 38 -20 75
-44 335 -217 785 -331 1166 -296 306 28 586 125 837 288 294 191 550 493 694
819 69 156 122 334 96 318 -5 -3 -36 -45 -69 -93 -396 -577 -899 -877 -1472
-880 -289 -1 -579 64 -904 203 -96 40 -198 92 -164 82 58 -18 228 -29 361 -24
183 5 297 32 443 101 133 63 231 134 333 241 146 154 250 351 306 580 36 150
31 166 -24 69 -47 -81 -138 -200 -206 -269 -289 -293 -651 -382 -1119 -276
l-101 23 17 112 c56 370 46 755 -27 1086 -85 382 -278 781 -531 1100 -96 121
-349 373 -473 472 -185 147 -388 279 -633 413 l-69 37 49 35 c66 48 193 111
285 142 43 14 79 30 80 35 4 12 -29 21 -146 40 -181 31 -394 26 -558 -13 l-77
-18 16 31 c26 51 82 114 149 169 35 28 64 54 64 59 0 8 -162 12 -171 4z m301
-1438 c129 -67 95 -266 -49 -285 -141 -19 -233 142 -143 249 51 60 119 73 192
36z"/>
</g>
</svg>
